<svg 
 xmlns="http://www.w3.org/2000/svg"
 xmlns:xlink="http://www.w3.org/1999/xlink"
 width="294px" height="253px">
<defs>
<filter filterUnits="userSpaceOnUse" id="Filter_0" x="0px" y="0px" width="294px" height="253px"  >
    <feOffset in="SourceAlpha" dx="0" dy="3" />
    <feGaussianBlur result="blurOut" stdDeviation="5.196" />
    <feFlood flood-color="rgb(3, 7, 26)" result="floodOut" />
    <feComposite operator="atop" in="floodOut" in2="blurOut" />
    <feComponentTransfer><feFuncA type="linear" slope="1"/></feComponentTransfer>
    <feMerge>
    <feMergeNode/>
    <feMergeNode in="SourceGraphic"/>
  </feMerge>
</filter>

</defs>
<g filter="url(#Filter_0)">
<path fill-rule="evenodd"  fill="rgb(255, 255, 255)"
 d="M232.032,141.234 C210.559,143.297 186.519,151.627 186.519,151.627 C186.519,151.627 207.961,134.674 236.861,130.149 C213.520,102.479 213.765,42.079 159.758,37.335 C84.668,37.662 87.932,98.964 87.907,98.972 C87.907,98.972 81.678,21.947 162.383,26.224 C218.007,34.978 218.923,77.930 238.929,112.827 C253.526,139.561 265.822,144.005 265.822,144.005 C265.822,144.005 249.873,139.518 232.032,141.234 ZM120.769,92.731 C120.769,77.283 133.185,64.759 148.499,64.759 C163.815,64.759 176.229,77.283 176.229,92.731 C176.229,108.178 163.815,120.699 148.499,120.699 C133.185,120.699 120.769,108.178 120.769,92.731 ZM164.858,92.731 C164.858,83.617 157.533,76.230 148.499,76.230 C139.466,76.230 132.141,83.617 132.141,92.731 C132.141,101.843 139.466,109.230 148.499,109.230 C157.533,109.230 164.858,101.843 164.858,92.731 ZM138.725,148.827 C213.862,148.499 210.596,87.113 210.622,87.103 C210.622,87.103 216.855,164.236 136.100,159.952 C80.444,151.188 79.526,108.175 59.507,73.230 C44.902,46.459 32.599,42.009 32.599,42.009 C32.599,42.009 48.558,46.502 66.409,44.783 C87.895,42.718 111.950,34.377 111.950,34.377 C111.950,34.377 90.495,51.353 61.577,55.884 C84.932,83.591 84.689,144.076 138.725,148.827 ZM41.999,178.181 C40.488,178.181 39.283,178.294 38.387,178.518 C37.502,178.741 36.793,179.135 36.267,179.695 C35.748,180.258 35.352,180.999 35.085,181.917 C34.818,182.839 34.573,183.986 34.352,185.352 L33.315,185.352 L34.085,175.924 L61.787,175.924 L37.161,211.382 L52.526,211.382 C53.711,211.382 54.742,211.271 55.619,211.047 C56.496,210.822 57.282,210.419 57.978,209.833 C58.664,209.249 59.274,208.450 59.792,207.426 C60.319,206.406 60.823,205.098 61.320,203.504 L62.220,203.673 L60.481,213.671 L29.972,213.671 L29.972,212.628 L54.002,178.181 L41.999,178.181 ZM69.468,191.213 C70.247,190.357 71.093,189.651 71.994,189.090 C72.895,188.531 73.847,188.109 74.865,187.826 C75.879,187.547 76.907,187.407 77.955,187.407 C79.693,187.407 81.311,187.748 82.799,188.432 C84.294,189.119 85.584,190.049 86.675,191.230 C87.768,192.409 88.621,193.788 89.231,195.371 C89.852,196.954 90.156,198.642 90.156,200.438 C90.156,201.608 90.018,202.756 89.736,203.892 C89.460,205.024 89.051,206.187 88.514,207.377 C87.423,209.733 85.936,211.499 84.036,212.680 C82.145,213.859 80.015,214.447 77.655,214.447 C75.917,214.447 74.313,214.088 72.850,213.370 C71.376,212.651 70.117,211.682 69.073,210.458 C68.019,209.235 67.203,207.818 66.615,206.215 C66.021,204.610 65.730,202.930 65.730,201.181 C65.730,198.821 66.295,196.498 67.432,194.209 C68.011,193.063 68.691,192.065 69.468,191.213 ZM71.422,204.025 C71.797,205.675 72.323,207.124 73.009,208.369 C73.705,209.616 74.544,210.609 75.534,211.347 C76.528,212.091 77.633,212.460 78.862,212.460 C79.725,212.460 80.534,212.292 81.282,211.955 C82.029,211.620 82.676,211.063 83.234,210.288 C83.792,209.515 84.226,208.499 84.539,207.240 C84.852,205.985 85.005,204.436 85.005,202.594 C85.005,200.775 84.830,199.053 84.471,197.424 C84.119,195.798 83.609,194.377 82.939,193.165 C82.265,191.952 81.441,190.995 80.465,190.285 C79.481,189.579 78.366,189.225 77.121,189.225 C76.300,189.225 75.506,189.401 74.748,189.747 C73.993,190.097 73.331,190.656 72.756,191.431 C72.193,192.206 71.734,193.198 71.393,194.412 C71.049,195.623 70.874,197.093 70.874,198.821 C70.874,200.640 71.057,202.374 71.422,204.025 ZM97.771,191.213 C98.548,190.357 99.396,189.651 100.295,189.090 C101.196,188.531 102.158,188.109 103.173,187.826 C104.182,187.547 105.210,187.407 106.263,187.407 C107.995,187.407 109.614,187.748 111.110,188.432 C112.597,189.119 113.886,190.049 114.985,191.230 C116.077,192.409 116.924,193.788 117.542,195.371 C118.153,196.954 118.458,198.642 118.458,200.438 C118.458,201.608 118.321,202.756 118.037,203.892 C117.764,205.024 117.352,206.187 116.819,207.377 C115.725,209.733 114.237,211.499 112.346,212.680 C110.447,213.859 108.324,214.447 105.958,214.447 C104.226,214.447 102.617,214.088 101.151,213.370 C99.678,212.651 98.420,211.682 97.375,210.458 C96.330,209.235 95.505,207.818 94.918,206.215 C94.323,204.610 94.032,202.930 94.032,201.181 C94.032,198.821 94.596,196.498 95.733,194.209 C96.313,193.063 96.992,192.065 97.771,191.213 ZM99.725,204.025 C100.099,205.675 100.625,207.124 101.319,208.369 C102.007,209.616 102.846,210.609 103.836,211.347 C104.830,212.091 105.935,212.460 107.165,212.460 C108.033,212.460 108.844,212.292 109.583,211.955 C110.331,211.620 110.978,211.063 111.535,210.288 C112.093,209.515 112.531,208.499 112.841,207.240 C113.155,205.985 113.307,204.436 113.307,202.594 C113.307,200.775 113.132,199.053 112.774,197.424 C112.422,195.798 111.910,194.377 111.240,193.165 C110.568,191.952 109.745,190.995 108.767,190.285 C107.791,189.579 106.675,189.225 105.425,189.225 C104.601,189.225 103.808,189.401 103.052,189.747 C102.295,190.097 101.632,190.656 101.067,191.431 C100.495,192.206 100.036,193.198 99.695,194.412 C99.351,195.623 99.175,197.093 99.175,198.821 C99.175,200.640 99.357,202.374 99.725,204.025 ZM129.722,187.407 L129.722,192.829 C130.651,191.885 131.385,191.151 131.904,190.623 C132.431,190.097 132.781,189.764 132.962,189.628 C133.803,188.935 134.713,188.389 135.664,187.997 C136.627,187.605 137.572,187.407 138.505,187.407 C140.113,187.407 141.479,187.874 142.615,188.805 C143.752,189.738 144.509,191.077 144.891,192.829 C145.844,191.707 146.724,190.790 147.516,190.084 C148.302,189.377 149.044,188.828 149.721,188.432 C150.401,188.041 151.057,187.773 151.706,187.626 C152.352,187.481 153.033,187.407 153.743,187.407 C154.680,187.407 155.552,187.565 156.352,187.878 C157.154,188.193 157.855,188.720 158.459,189.463 C159.059,190.202 159.533,191.179 159.879,192.389 C160.223,193.602 160.396,195.118 160.396,196.937 L160.396,207.915 C160.396,208.767 160.420,209.497 160.465,210.102 C160.505,210.708 160.648,211.204 160.893,211.586 C161.143,211.966 161.519,212.244 162.031,212.408 C162.548,212.579 163.265,212.661 164.206,212.661 L164.206,213.671 L151.706,213.671 L151.706,212.661 L152.239,212.661 C152.934,212.661 153.514,212.608 153.978,212.495 C154.444,212.383 154.812,212.151 155.079,211.806 C155.353,211.456 155.535,210.975 155.648,210.357 C155.757,209.740 155.819,208.926 155.819,207.915 L155.819,196.937 C155.819,195.725 155.719,194.719 155.535,193.923 C155.345,193.125 155.070,192.493 154.710,192.021 C154.361,191.549 153.917,191.218 153.391,191.027 C152.872,190.837 152.278,190.741 151.604,190.741 C151.117,190.741 150.629,190.797 150.148,190.908 C149.675,191.022 149.179,191.213 148.668,191.481 C148.148,191.751 147.601,192.110 147.011,192.560 C146.416,193.009 145.776,193.570 145.088,194.243 L145.088,207.915 C145.088,208.790 145.105,209.502 145.144,210.054 C145.173,210.605 145.248,210.977 145.355,211.180 C145.539,211.607 145.899,211.961 146.449,212.244 C146.988,212.524 147.903,212.661 149.201,212.661 L149.201,213.671 L136.407,213.671 L136.407,212.661 C137.383,212.661 138.152,212.593 138.710,212.460 C139.266,212.326 139.678,212.078 139.945,211.719 C140.214,211.362 140.373,210.872 140.426,210.256 C140.481,209.638 140.510,208.859 140.510,207.915 L140.510,196.937 C140.510,195.748 140.404,194.753 140.197,193.956 C139.983,193.159 139.687,192.515 139.312,192.021 C138.931,191.527 138.474,191.179 137.938,190.977 C137.404,190.776 136.825,190.675 136.200,190.675 C135.596,190.675 134.979,190.786 134.345,191.010 C133.710,191.235 133.102,191.522 132.529,191.870 C131.947,192.217 131.417,192.604 130.918,193.031 C130.431,193.457 130.034,193.860 129.722,194.243 L129.722,207.915 C129.722,208.767 129.743,209.453 129.806,209.968 C129.856,210.486 129.941,210.895 130.056,211.197 C130.165,211.499 130.301,211.726 130.469,211.871 C130.636,212.018 130.842,212.158 131.087,212.292 C131.537,212.539 132.445,212.661 133.825,212.661 L133.825,213.671 L121.296,213.671 L121.296,212.661 C122.167,212.661 122.859,212.590 123.371,212.443 C123.884,212.297 124.274,212.044 124.539,211.686 C124.806,211.328 124.975,210.844 125.042,210.240 C125.105,209.632 125.143,208.859 125.143,207.915 L125.143,198.150 C125.143,196.509 125.111,195.219 125.060,194.278 C124.998,193.333 124.898,192.624 124.751,192.155 C124.607,191.685 124.410,191.393 124.157,191.280 C123.898,191.165 123.571,191.112 123.167,191.112 C122.631,191.112 122.006,191.258 121.296,191.549 L120.901,190.538 L128.515,187.407 L129.722,187.407 ZM194.473,184.174 L193.810,184.174 C193.544,182.804 193.262,181.710 192.956,180.891 C192.659,180.072 192.247,179.443 191.719,179.004 C191.202,178.566 190.522,178.287 189.698,178.163 C188.873,178.041 187.829,177.978 186.562,177.978 L176.268,177.978 L176.268,192.896 L184.488,192.896 C185.693,192.896 186.669,192.789 187.408,192.574 C188.156,192.361 188.753,192.030 189.178,191.583 C189.613,191.133 189.918,190.568 190.089,189.883 C190.255,189.196 190.353,188.374 190.399,187.407 L191.406,187.407 L191.406,200.537 L190.399,200.537 C190.248,199.486 190.080,198.598 189.904,197.880 C189.721,197.161 189.440,196.583 189.050,196.146 C188.662,195.708 188.110,195.395 187.395,195.202 C186.685,195.011 185.715,194.915 184.488,194.915 L176.268,194.915 L176.268,207.377 C176.268,209.059 176.335,210.080 176.467,210.439 C176.535,210.621 176.626,210.782 176.749,210.930 C176.871,211.074 177.039,211.197 177.253,211.299 C177.467,211.399 177.740,211.479 178.070,211.533 C178.407,211.592 178.839,211.620 179.376,211.620 L185.723,211.620 C186.790,211.620 187.692,211.592 188.431,211.533 C189.164,211.479 189.797,211.366 190.341,211.197 C190.875,211.028 191.347,210.804 191.774,210.525 C192.192,210.246 192.645,209.867 193.110,209.398 C194.223,208.317 195.392,206.590 196.620,204.213 L197.718,204.213 L194.473,213.671 L165.607,213.671 L165.607,212.628 L166.911,212.628 C167.265,212.628 167.639,212.590 168.027,212.512 C168.415,212.432 168.783,212.315 169.119,212.158 C169.456,212.000 169.751,211.800 170.018,211.553 C170.287,211.304 170.485,211.014 170.622,210.676 C170.842,210.092 170.958,208.869 170.958,207.005 L170.958,182.491 C170.958,181.302 170.897,180.329 170.789,179.577 C170.674,178.825 170.499,178.314 170.246,178.045 C169.583,177.304 168.470,176.933 166.911,176.933 L165.607,176.933 L165.607,175.924 L194.473,175.924 L194.473,184.174 ZM211.155,189.193 L210.583,189.193 C209.734,189.193 209.110,189.372 208.699,189.731 C208.285,190.091 208.081,190.538 208.081,191.077 C208.081,191.841 208.393,192.852 209.011,194.109 L215.161,206.971 L220.840,192.861 C221.152,192.056 221.313,191.302 221.313,190.607 C221.313,190.404 221.281,190.218 221.229,190.049 C221.176,189.883 221.052,189.738 220.879,189.612 C220.694,189.489 220.441,189.388 220.106,189.310 C219.779,189.230 219.320,189.193 218.740,189.193 L218.740,188.148 L226.991,188.148 L226.991,189.193 C226.547,189.237 226.166,189.305 225.836,189.395 C225.517,189.483 225.219,189.658 224.953,189.915 C224.683,190.174 224.417,190.550 224.150,191.045 C223.883,191.536 223.587,192.201 223.251,193.031 L212.959,218.488 C212.468,219.701 211.881,220.777 211.201,221.722 C210.520,222.665 209.797,223.448 209.033,224.080 C208.263,224.706 207.477,225.183 206.677,225.509 C205.877,225.835 205.105,225.998 204.372,225.998 C203.838,225.998 203.343,225.907 202.884,225.727 C202.427,225.548 202.036,225.319 201.709,225.038 C201.388,224.754 201.129,224.426 200.946,224.045 C200.755,223.663 200.664,223.270 200.664,222.867 C200.664,222.079 200.907,221.451 201.413,220.979 C201.915,220.507 202.610,220.275 203.502,220.275 C203.701,220.275 203.999,220.328 204.389,220.440 C204.776,220.553 205.182,220.672 205.593,220.796 C206.006,220.918 206.379,221.036 206.722,221.149 C207.073,221.261 207.287,221.316 207.378,221.316 C207.646,221.316 207.936,221.252 208.247,221.114 C208.562,220.979 208.866,220.754 209.179,220.440 C209.492,220.128 209.819,219.695 210.148,219.146 C210.485,218.595 210.820,217.917 211.155,217.106 L212.959,212.661 L203.870,193.436 C203.754,193.230 203.603,192.960 203.403,192.610 C203.197,192.261 202.976,191.914 202.732,191.563 C202.487,191.218 202.243,190.899 201.999,190.607 C201.755,190.315 201.550,190.100 201.396,189.965 C200.992,189.697 200.312,189.439 199.358,189.193 L199.358,188.148 L211.155,188.148 L211.155,189.193 ZM250.432,189.725 C262.647,189.706 269.989,202.041 269.989,202.041 C269.989,202.041 263.876,216.919 250.432,216.818 C236.986,216.717 230.883,202.041 230.883,202.041 C230.883,202.041 238.214,189.742 250.432,189.725 ZM250.432,213.123 C259.191,213.196 265.098,202.175 265.098,202.175 C265.098,202.175 259.282,193.404 250.432,193.421 C241.579,193.436 235.763,202.175 235.763,202.175 C235.763,202.175 241.673,213.052 250.432,213.123 ZM250.432,197.113 C253.804,197.113 256.543,199.870 256.543,203.271 C256.543,206.673 253.804,209.429 250.432,209.429 C247.059,209.429 244.319,206.673 244.319,203.271 C244.319,199.870 247.059,197.113 250.432,197.113 Z"/>
</g>
</svg>
