<svg xmlns="http://www.w3.org/2000/svg" width="16" height="16"><g color="#000"><path fill="#fff" d="M549.49,724.51V680.09l-4.6-45.2L528,583.57l-31.4-49L456,503.15,419.28,488.6l40.59,9.19,32.94,13.78,29.87,17.62,22.21,19.15L564,572.85,574,602l5.36,15.32v-26l-10.72-26.8-19.92-32.17-39.83-29.11-43.66-18.38L414.68,474l-60.51-6.89H306l-32.26-7.66-29.1-16.09-19.92-20.68L215.53,396l-6.13-25.36,6.9-29.11,13.79-25.27,26.8-19.15,20.68-5.37H306l31.32,6.9,35.23,11.49,32.94,13.78,27.57,12.26,6.9,18.38,17.61,10.73,12.26,3.83,19.15,13L500.47,396l26.81-16.94-13-3.83-19.92-7.66-10-9.19,3.83-5.36L474.43,335.4l-4.6-12.25L456,320.09l-6.13,3.06-12.25-10-10-16.85.77,12.26-16.09-8.43-9.95-16.08s-6.9,1.53-3.83,7.65-13.79-7.65-13.79-7.65l-10-17.62c-3.06,15.32-9.19,12.25-9.19,12.25l-42.89-8.42-46-3.83-16.09-5.36-13-10.73-16.08-36-2.3-39.83L149.66,147,73.83,133.19,0,124H-117.66l-78.89,5.36H-90.09l58.22,4.6,51.32,4.59,72,13,72,18.39,49,15.32,10.72,42.89,18.38,42.13,2.3,4.59L208.64,301.7,191.4,332.34l-9.57,36.77,5.36,42.12L207.87,448l31.41,25.28L286,489.36l52.09,2.3,46,3.83,43.66,13.79,35.24,17.61L483.62,546,502,570.55l16.85,28.34,10.72,29.88,11.49,39.83Z" transform="translate(230.26 -124)"/><polygon class="cls-1" points="692.43 192.25 660.25 159.32 612 128.68 527.75 95.75 610.09 134.04 654.13 164.68 686.3 196.09 692.43 192.25"/><polygon class="cls-1" points="707.75 229.79 699.32 215.23 696.25 222.51 707.75 229.79"/><polygon class="cls-1" points="436.6 68.17 392.17 59.74 324 56.68 275.75 56.68 217.53 62.43 138.64 76.6 67.4 92.68 0 115.66 50.55 104.17 101.87 94.21 142.91 87.58 230.25 78.13 288.77 75.83 362.3 77.36 441.19 82.72 436.6 68.17"/><polygon class="cls-1" points="452.68 110.3 446.55 91.15 393.7 94.98 330.89 104.94 265.79 124.08 196.09 150.13 127.92 183.83 84.25 215.23 136.34 189.96 178.47 170.81 230.25 153.19 285.7 135.57 343.92 122.55 399.06 115.66 452.68 110.3"" font-family="sans-serif" font-weight="400" overflow="visible" transform="translate(-1233 7)" white-space="normal" style="line-height:normal;font-variant-ligatures:normal;font-variant-position:normal;font-variant-caps:normal;font-variant-numeric:normal;font-variant-alternates:normal;font-feature-settings:normal;text-indent:0;text-align:start;text-decoration-line:none;text-decoration-style:solid;text-decoration-color:#000;text-transform:none;text-orientation:mixed;shape-padding:0;isolation:auto;mix-blend-mode:normal"/></g></svg>